<?xml version="1.0" encoding="UTF-8" standalone="no"?>
<svg
   width="297mm"
   height="210mm"
   clip-rule="evenodd"
   fill-rule="evenodd"
   image-rendering="optimizeQuality"
   shape-rendering="geometricPrecision"
   text-rendering="geometricPrecision"
   version="1.1"
   viewBox="0 0 29700 21000"
   id="svg19"
   sodipodi:docname="femalev.svg"
   inkscape:version="1.3.2 (091e20e, 2023-11-25, custom)"
   xmlns:inkscape="http://www.inkscape.org/namespaces/inkscape"
   xmlns:sodipodi="http://sodipodi.sourceforge.net/DTD/sodipodi-0.dtd"
   xmlns="http://www.w3.org/2000/svg"
   xmlns:svg="http://www.w3.org/2000/svg">
  <sodipodi:namedview
     id="namedview19"
     pagecolor="#505050"
     bordercolor="#eeeeee"
     borderopacity="1"
     inkscape:showpageshadow="0"
     inkscape:pageopacity="0"
     inkscape:pagecheckerboard="0"
     inkscape:deskcolor="#505050"
     inkscape:document-units="mm"
     inkscape:zoom="1.0243155"
     inkscape:cx="560.86236"
     inkscape:cy="373.42011"
     inkscape:window-width="1920"
     inkscape:window-height="1009"
     inkscape:window-x="1912"
     inkscape:window-y="-8"
     inkscape:window-maximized="1"
     inkscape:current-layer="svg19" />
  <defs
     id="defs2">
    <style
       type="text/css"
       id="style1">
    .fil2 {fill:#1A1617}
    .fil6 {fill:#383032}
    .fil3 {fill:#3D3D3D}
    .fil5 {fill:#E6C6AA}
    .fil1 {fill:#E6E6E6}
    .fil8 {fill:#F23034}
    .fil4 {fill:#F6D5B8}
    .fil7 {fill:white}
    .fil0 {fill:url(#a)}
  </style>
    <linearGradient
       id="a"
       x1="15728"
       x2="15858"
       y1="3765.8"
       y2="17338"
       gradientUnits="userSpaceOnUse"
       gradientTransform="translate(-258.30258,7697.417)">
      <stop
         stop-color="#fff"
         offset="0"
         id="stop1" />
      <stop
         stop-color="#EB9494"
         offset="1"
         id="stop2" />
    </linearGradient>
  </defs>
  <circle
     class="fil1"
     cx="14660.29"
     cy="10206.565"
     r="5490"
     id="circle2"
     style="fill:#e6e6e6" />
  <path
     class="fil2"
     d="m 12963.29,11108.566 c -19,15 -47,21 -119,46 -378,131 -754,286 -1128,469 -236,115 -213,73 -315,312 -263,612 -513,1252 -697,1867 619,667 1405,1177 2291,1464 333,90 679,164 1032,225 190,22 384,35 580,37 h 121 c 191,-3 379,-15 565,-37 352,-61 699,-135 1032,-225 886,-287 1671,-797 2291.001,-1464 -184,-615 -434,-1255 -697.001,-1867 -102,-239 -79,-197 -316,-312 -373,-183 -749,-338 -1127,-469 -51,-18 -79,-26 -99,-34 l -5,-12 c -72,-124 -157,-239 -254,-347 459,32 832,-82 1066,-365 226,-275 239,-479.0003 251,-812 23,-653 -27,-1355 -207,-2009 -175,-639 -473,-1232 -946,-1688 -453,-436 -982,-780 -1622,-780 -451,0 -842,83 -1118,520 -272,-35 -420,86 -601,260 -473,456 -771,1049 -946,1688 -180,654 -230,1356 -207,2009 12,332.9997 24,537 251,812 250,303 660,412 1163,357 h 6 c -93,106 -174,225 -245,355 z"
     id="path2"
     style="fill:#1a1617" />
  <path
     class="fil3"
     d="m 13202.29,10754.566 c 99,-106 217,-205 349,-299 l 69,-320 c -239,-278.0003 -419,-650 -509,-1075 -181,4 -372,-207 -446,-509 -60,-240 -64,-434 3,-557 114,-209 318,-79 399,76 75,-634 344,-1178 721,-1512 273,308 596,563 1021,610 813,90 1243,379 1439,859 92,-134 269,-222 373,-33 66,123 62,317 3,557 -70,284 -243,488 -414,507 -88,411 -258,771.9997 -485,1047 l -5,30 73,337 c 114,77 228,174 320,291 461,33 836,-81 1071,-365 226,-275 239,-479.0003 251,-812 23,-653 -27,-1356 -207,-2010 -175,-639 -473,-1232 -946,-1687 -453,-436 -982,-781 -1622,-781 -451,0 -842,84 -1118,520 -272,-35 -420,87 -601,261 -473,455 -771,1048 -946,1687 -180,654 -230,1357 -207,2010 12,332.9997 24,537 251,812 250,303 660,412 1163,356 z"
     id="path3"
     style="fill:#3d3d3d" />
  <path
     class="fil4"
     d="m 16248.29,8027.566 c 92,-134 269,-222 373,-33 66,123 62,317 3,557 -70,284 -243,488 -414,507 -88,411 -258,771.9997 -485,1047 l -5,30 70,321 -6,-1 c 6,19 12,37 17,55 l 3,11 c 24,88 47,181 67,280 139,797 -146,1543 -482,2316 -186,198 -465,351 -719,340 -258,11 -543,-147 -728,-351 -313,-719 -580,-1416 -500,-2153 24,-155 58,-301 95,-432 l 14,-66 69,-320 c -239,-278.0003 -419,-650 -509,-1075 -181,4 -372,-207 -446,-509 -60,-240 -64,-434 3,-557 114,-209 318,-79 399,76 75,-634 344,-1178 721,-1512 273,308 596,563 1021,610 813,90 1243,379 1439,859 z"
     id="path4"
     style="fill:#f6d5b8" />
  <path
     class="fil5"
     d="m 13097.29,8992.566 c -36,-166 -55,-334 -59,-503 -3,-109 1,-217 11,-326 -9,-12 -18,-24 -29,-36 -34,-37 -96,-85 -152,-81 -42,4 -69,38 -86,70 -71,128 -24,343 14,474 33,112 91,228 176,314 33,34 77,68 125,88 z m 3116,0 c 36,-166 55,-334 59,-503 3,-109 -1,-217 -11,-326 9,-12 18,-24 29,-36 34,-37 96,-85 152,-81 42,4 69,38 87,70 70,128 23,343 -15,474 -33,112 -91,228 -176,314 -33,34 -76,68 -125,88 z"
     id="path5"
     style="fill:#e6c6aa" />
  <path
     class="fil5"
     d="m 13620.29,10135.566 z m 2170,321 -70,-321 5,-30 c -284,344 -657,553 -1065,553 -396,0 -759,-197 -1040,-523 l -20,91 c 117,158 251,283 400,381 201,131 428,213 676,258 257,47 536,54 829,36 76,-5 64,-18 84,57 243,953 -171,2507 -1638,2158 185,199 465,352 719,341 254,11 533,-142 719,-340 364,-838 703,-1746 401,-2661 z"
     id="path6"
     style="fill:#e6c6aa" />
  <path
     class="fil5"
     d="m 16248.29,8027.566 c -196,-480 -626,-769 -1439,-859 -425,-47 -748,-302 -1021,-610 -377,334 -646,878 -721,1511 217,-448 388,-962 710,-1278 418,989 1839,369 2471,1236 z"
     id="path7"
     style="fill:#e6c6aa" />
  <path
     class="fil6"
     d="m 16372.29,11108.566 c 50,109 93,221 127,336 34,115 59,234 74,356 4,34 9,53 8,71 0,17 -7,34 -26,62 -38,58 -83,111 -136,162 -53,50 -113,97 -179,142 l 238,254 239,254 -1025,1308 -1024,1308 -1025,-1308 -1025,-1308 239,-254 238,-254 c -66,-45 -126,-92 -179,-142 -52,-51 -98,-104 -136,-162 -19,-28 -26,-45 -26,-62 -1,-18 4,-37 8,-71 15,-122 40,-241 74,-356 34,-115 77,-227 127,-336 74,-135 158,-258 256,-368 97,-110 207,-205 332,-285 -263,796 -67,1534 236,2284 303,751 714,1515 881,2365 166,-850 578,-1614 883,-2364 305,-751 502,-1488 239,-2284 122,94 231,194 328,303 97,108 182,224 254,349 z"
     id="path8"
     style="fill:#383032" />
  <path
     class="fil7"
     d="m 14668.29,15104.566 c 138,-708 446,-1356 721,-1987 -186,198 -465,351 -719,340 -254,11 -534,-142 -719,-341 -3,-3 -6,-7 -9,-10 275,634 586,1286 726,1998 z"
     id="path9"
     style="fill:#ffffff" />
</svg>
