<?xml version="1.0" encoding="UTF-8" standalone="no"?>
<!-- Created with Inkscape (http://www.inkscape.org/) -->

<svg
   width="210mm"
   height="297mm"
   viewBox="0 0 210 297"
   version="1.1"
   id="svg1"
   inkscape:version="1.3.2 (091e20e, 2023-11-25, custom)"
   sodipodi:docname="malev.svg"
   xmlns:inkscape="http://www.inkscape.org/namespaces/inkscape"
   xmlns:sodipodi="http://sodipodi.sourceforge.net/DTD/sodipodi-0.dtd"
   xmlns="http://www.w3.org/2000/svg"
   xmlns:svg="http://www.w3.org/2000/svg">
  <sodipodi:namedview
     id="namedview1"
     pagecolor="#505050"
     bordercolor="#eeeeee"
     borderopacity="1"
     inkscape:showpageshadow="0"
     inkscape:pageopacity="0"
     inkscape:pagecheckerboard="0"
     inkscape:deskcolor="#505050"
     inkscape:document-units="mm"
     inkscape:zoom="2.8970539"
     inkscape:cx="-63.512799"
     inkscape:cy="69.553418"
     inkscape:window-width="1920"
     inkscape:window-height="1009"
     inkscape:window-x="1912"
     inkscape:window-y="-8"
     inkscape:window-maximized="1"
     inkscape:current-layer="layer1" />
  <defs
     id="defs1" />
  <g
     inkscape:label="Layer 1"
     inkscape:groupmode="layer"
     id="layer1">
    <circle
       class="fil1"
       cx="105.16529"
       cy="105.02802"
       r="104.8"
       id="circle9"
       style="fill:#e6e6e6;stroke-width:0.0190878" />
    <path
       class="fil2"
       d="m 147.75348,58.660222 c 1.45054,2.576997 1.35531,6.643018 0.0757,11.701693 -1.50792,5.95581 -5.2302,10.231808 -8.91464,10.651787 -1.87074,8.609244 -5.55501,16.206756 -10.44187,21.971758 6.45228,5.11596 11.81626,10.86179 15.61502,17.52387 9.56379,3.05424 18.9365,8.15127 28.38575,12.42723 2.38605,1.0879 1.92794,0.70615 2.99691,3.16869 4.35256,10.07918 7.44478,20.34925 11.24365,30.50462 -18.8411,24.33882 -48.33395,40.01111 -81.51102,40.01111 -33.215327,0 -62.765469,-15.72942 -81.606548,-40.16379 4.390521,-9.35364 6.986659,-20.5975 11.644425,-30.44749 1.278984,-2.67232 0.859034,-2.25244 3.512433,-3.4169 9.105553,-3.97046 17.69573,-8.49461 27.58395,-11.60623 4.371461,-7.48305 9.907366,-13.38154 16.760407,-17.44756 -5.134709,-5.822205 -8.952562,-13.591565 -10.899658,-22.506213 -3.894221,0.07636 -8.017486,-4.333252 -9.62097,-10.670882 -1.278987,-5.058675 -1.355335,-9.124696 0.07637,-11.701693 0.763559,-1.336284 1.679838,-2.0044 2.653402,-2.214428 -5.72671,-20.425419 1.030879,-34.608751 15.53871,-43.12257 20.253699,-15.4050154 46.081429,-14.0687668 61.639249,7.463888 7.29201,10.098229 8.47567,25.083316 5.26867,37.87311 z"
       id="path10"
       style="fill:#1a1617;stroke-width:0.0190878" />
    <path
       class="fil3"
       d="M 104.78352,3.282288 C 96.575096,4.2176614 88.328526,7.6155507 80.845534,13.323224 66.337727,21.837043 59.580121,36.020375 65.306909,56.445794 c 2.233432,-0.477185 4.734121,1.527168 5.936729,3.798817 0.267294,0.534498 0.53449,1.374412 0.439043,1.966219 0.114437,2.691522 0.45816,5.383115 1.049944,7.86472 0.190871,0.80175 1.679863,1.641669 1.488976,0.419975 -0.706312,-4.466897 -0.152698,-9.716416 -0.897215,-13.935161 l -0.687204,-3.760547 c 2.538856,-10.079154 7.578442,-18.631149 14.126034,-24.300654 5.898587,6.471279 12.847067,11.83536 22.009834,12.808911 15.8059,1.698955 24.8924,6.833954 29.60752,15.25229 -0.74449,4.218745 -0.20995,9.468264 -0.89706,13.935161 -0.19102,1.221694 1.29793,0.381775 1.48883,-0.419975 0.59164,-2.481605 0.4201,-5.1541 0.53442,-7.845686 -0.26714,-0.954449 -0.28624,-2.061642 0.22904,-2.882437 1.81367,-2.920681 5.80317,-4.657797 8.01768,-0.687205 3.20701,-12.789794 2.02329,-27.774881 -5.26861,-37.87311 C 134.86808,10.249859 124.78892,4.5421784 114.099,3.282288 Z"
       id="path11"
       style="fill:#3d3d3d;stroke-width:0.0190878" />
    <path
       class="fil4"
       d="m 65.306909,56.445794 z m -1.431674,0.706326 c -0.439084,0.362733 -0.839941,0.859041 -1.221728,1.508102 -1.431694,2.576997 -1.355374,6.643018 -0.07648,11.701693 1.107174,4.31414 3.359713,7.750196 5.936779,9.468238 1.183504,0.801761 2.443405,1.240797 3.684209,1.202644 1.947112,8.914648 5.764969,16.684008 10.899965,22.506213 -0.629955,1.83255 -1.221704,4.33322 -1.756206,6.83389 6.853025,10.61367 15.061408,16.79855 23.861586,16.79855 9.27724,0 17.86754,-6.83398 24.93061,-18.45922 -0.63004,-2.55805 -1.24088,-4.6197 -1.66093,-5.72677 4.88688,-5.765002 8.57115,-13.362514 10.44191,-21.971758 1.01172,-0.114572 2.02347,-0.534498 2.99701,-1.183549 2.57698,-1.718042 4.82962,-5.154098 5.91781,-9.468238 1.27889,-5.058675 1.37413,-9.124696 -0.0757,-11.701693 -0.36273,-0.649061 -0.76376,-1.145369 -1.20256,-1.508102 -2.25283,-1.870679 -5.30704,-0.248162 -6.81504,2.195307 -0.51535,0.820795 -0.49629,1.927988 -0.22914,2.882437 -0.1146,2.691586 0.0562,5.364081 -0.5344,7.845686 -0.19077,0.80175 -1.67985,1.641669 -1.48884,0.419975 0.68712,-4.466897 0.15253,-9.716416 0.89708,-13.935161 C 133.66543,48.142028 124.57892,43.007029 108.77296,41.308074 99.610157,40.334523 92.66168,34.970442 86.763081,28.499163 80.215467,34.168668 75.1759,42.720663 72.637067,52.799817 l 0.687194,3.760547 c 0.744497,4.218745 0.190904,9.468264 0.897197,13.935161 0.190914,1.221694 -1.298077,0.381775 -1.488965,-0.419975 -0.591771,-2.481605 -0.93537,-5.173198 -1.049913,-7.86472 0.09556,-0.591807 -0.171723,-1.431721 -0.439037,-1.966219 -1.202635,-2.271649 -3.703337,-4.276002 -5.936754,-3.798817 -0.496313,0.09557 -0.973584,0.324561 -1.431705,0.706326 z"
       id="path12"
       style="fill:#f6d5b8;stroke-width:0.0190878" />
    <path
       class="fil5"
       d="m 71.892703,78.971155 c -0.763588,-3.49332 -1.183555,-7.024843 -1.259891,-10.57544 -0.05737,-2.27162 0.01932,-4.562366 0.229084,-6.833964 -0.190904,-0.267238 -0.381803,-0.515414 -0.610882,-0.763571 -0.744489,-0.782649 -2.080718,-1.794364 -3.283294,-1.679835 -0.897222,0.05742 -1.489,0.782691 -1.870808,1.450767 -1.508017,2.691592 -0.496299,7.215729 0.32452,9.964594 0.706311,2.347937 1.947098,4.791411 3.779701,6.5858 0.706247,0.706291 1.660763,1.431723 2.69157,1.851649 z m 67.098817,0 c 0.7635,-3.49332 1.1834,-7.024843 1.25968,-10.57544 0.0757,-2.27162 -0.0177,-4.562366 -0.22915,-6.833964 0.19103,-0.267238 0.38191,-0.515414 0.61097,-0.763571 0.74457,-0.782649 2.08069,-1.794364 3.28343,-1.679835 0.8972,0.05742 1.48904,0.782691 1.87066,1.450767 1.50797,2.691592 0.4963,7.215729 -0.32443,9.964594 -0.68718,2.347937 -1.94711,4.791411 -3.77968,6.5858 -0.70624,0.706291 -1.66095,1.431723 -2.69148,1.851649 z"
       id="path13"
       style="fill:#e6c6aa;stroke-width:0.0190878" />
    <path
       class="fil6"
       d="m 83.098103,103.63455 c -12.942511,36.32675 14.698723,70.40102 20.998147,102.98643 -1.03084,-0.0169 -2.0616,-0.0367 -3.09246,-0.0951 l -41.729072,-52.36202 11.911673,-9.33463 c -2.596154,-3.62681 -7.425696,-5.36419 -9.563692,-9.10549 2.004347,-4.73418 1.851646,-10.11739 4.715028,-14.64149 4.371421,-7.48305 9.907314,-13.38152 16.760376,-17.44754 z m 47.589497,1.18343 c 5.4786,4.63873 10.0409,9.8118 13.40052,15.69135 0.49645,0.15273 0.97355,0.32452 1.45085,0.47724 l 0.0576,0.0961 c 2.86344,4.52416 2.71064,9.9073 4.71517,14.6413 -2.13798,3.74164 -6.9487,5.47876 -9.56378,9.10577 l 11.9116,9.33452 -41.6527,52.30449 c -1.04987,0.0578 -2.0998,0.0941 -3.16884,0.11461 6.31852,-32.5661 33.9407,-66.64028 20.99816,-102.94799 0.62989,0.38176 1.24088,0.76348 1.85169,1.18341 z"
       id="path14"
       style="fill:#383032;stroke-width:0.0190878" />
    <path
       class="fil5"
       d="m 128.4731,102.98546 c 0.0949,-0.11455 -9.04817,10.30813 -22.83056,10.30813 -9.60194,0 -22.487209,-9.69729 -22.487209,-9.6782 l -0.400842,1.69894 c 2.44342,2.84422 5.192255,5.11586 8.208341,6.92938 4.466908,2.67252 9.52557,4.33321 15.02317,5.24952 5.28773,0.87812 10.99559,1.06899 16.95144,0.80184 2.53879,-2.65356 4.94407,-5.87966 7.1966,-9.58284 -0.61097,-2.53887 -1.24088,-4.6197 -1.66094,-5.72677 z"
       id="path15"
       style="fill:#e6c6aa;stroke-width:0.0190878" />
    <path
       class="fil7"
       d="m 105.20342,127.17145 c -8.800134,0 -17.008522,-6.18488 -23.86153,-16.79855 0.534496,-2.50067 1.126241,-5.00134 1.756213,-6.83389 -8.380191,23.5179 0.24813,46.08161 9.086479,67.91949 4.829546,11.9308 9.716448,23.63268 11.930798,35.16248 h 1.08804 c 0.87809,0 1.75626,-0.0169 2.61531,-0.0367 2.06158,-10.63241 6.39485,-21.45615 10.84264,-32.43242 9.18204,-22.67806 18.89844,-46.13887 10.17457,-70.61131 0.45814,0.28637 0.89711,0.55356 1.35536,0.83986 -0.5727,-0.4581 -1.1454,-0.93533 -1.7182,-1.3934 0.42006,1.1071 1.03088,3.16882 1.66094,5.72683 -2.25253,3.70338 -4.65781,6.92926 -7.1966,9.58267 -5.42153,5.7077 -11.41543,8.87665 -17.73402,8.87665 z"
       id="path16"
       style="fill:#ffffff;stroke-width:0.0190878" />
    <path
       class="fil8"
       d="m 105.31801,129.13772 -11.052708,17.61952 3.722404,5.36392 -5.803124,19.39452 c 4.810474,11.91176 9.697348,23.59446 11.911668,35.1053 h 1.10717 c 0.87809,0 1.75626,-0.0169 2.63445,-0.0367 2.06159,-10.61341 6.37571,-21.39896 10.8235,-32.37512 0.59167,-1.60363 -6.29948,-21.83827 -6.29948,-21.83827 l 3.72242,-6.54767 z"
       id="path17"
       style="fill:#f23034;stroke-width:0.0190878" />
    <path
       class="fil1"
       d="m 105.31801,129.51933 -17.218531,23.36528 -7.330265,-16.98925 c 2.061616,12.14082 6.757579,24.05233 11.491706,35.75429 l 5.726786,-19.14696 -3.722404,-5.36398 z m 17.33295,23.70905 -17.33295,-23.70905 10.7663,16.68401 -3.72242,6.5478 c 0,0 6.05126,17.77207 6.31859,21.3226 5.21128,-12.80882 10.55624,-25.88507 12.65623,-39.24748 z"
       id="path18"
       style="fill:#e6e6e6;stroke-width:0.0190878" />
    <path
       class="fil5"
       d="M 108.77305,41.308074 C 99.610283,40.334523 92.661803,34.970442 86.763216,28.499163 80.215624,34.168668 75.176038,42.720663 72.637182,52.799817 77.314035,45.62225 80.349235,36.421236 86.667789,31.28623 95.200683,48.810164 124.97984,42.357973 138.38057,56.560364 133.66545,48.142028 124.57895,43.007029 108.77305,41.308074 Z"
       id="path19"
       style="fill:#e6c6aa;stroke-width:0.0190878" />
  </g>
</svg>
