<?xml version="1.0" encoding="UTF-8" standalone="no"?>
<!-- Uploaded to: SVG Repo, www.svgrepo.com, Generator: SVG Repo Mixer Tools -->

<svg
   width="800px"
   height="800px"
   viewBox="0 0 24 24"
   fill="none"
   version="1.1"
   id="svg4"
   sodipodi:docname="profilebutton.svg"
   inkscape:version="1.3.2 (091e20e, 2023-11-25, custom)"
   xmlns:inkscape="http://www.inkscape.org/namespaces/inkscape"
   xmlns:sodipodi="http://sodipodi.sourceforge.net/DTD/sodipodi-0.dtd"
   xmlns="http://www.w3.org/2000/svg"
   xmlns:svg="http://www.w3.org/2000/svg">
  <sodipodi:namedview
     id="namedview4"
     pagecolor="#505050"
     bordercolor="#eeeeee"
     borderopacity="1"
     inkscape:showpageshadow="0"
     inkscape:pageopacity="0"
     inkscape:pagecheckerboard="0"
     inkscape:deskcolor="#505050"
     inkscape:zoom="1.01625"
     inkscape:cx="400"
     inkscape:cy="321.27921"
     inkscape:window-width="1920"
     inkscape:window-height="1009"
     inkscape:window-x="1912"
     inkscape:window-y="-8"
     inkscape:window-maximized="1"
     inkscape:current-layer="svg4" />
  <g
     clip-path="url(#clip0_15_82)"
     id="g2">
    <g
       filter="url(#filter0_d_15_82)"
       id="g1">
      <path
         d="M14.3365 12.3466L14.0765 11.9195C13.9082 12.022 13.8158 12.2137 13.8405 12.4092C13.8651 12.6046 14.0022 12.7674 14.1907 12.8249L14.3365 12.3466ZM9.6634 12.3466L9.80923 12.8249C9.99769 12.7674 10.1348 12.6046 10.1595 12.4092C10.1841 12.2137 10.0917 12.022 9.92339 11.9195L9.6634 12.3466ZM4.06161 19.002L3.56544 18.9402L4.06161 19.002ZM19.9383 19.002L20.4345 18.9402L19.9383 19.002ZM16 8.5C16 9.94799 15.2309 11.2168 14.0765 11.9195L14.5965 12.7737C16.0365 11.8971 17 10.3113 17 8.5H16ZM12 4.5C14.2091 4.5 16 6.29086 16 8.5H17C17 5.73858 14.7614 3.5 12 3.5V4.5ZM7.99996 8.5C7.99996 6.29086 9.79082 4.5 12 4.5V3.5C9.23854 3.5 6.99996 5.73858 6.99996 8.5H7.99996ZM9.92339 11.9195C8.76904 11.2168 7.99996 9.948 7.99996 8.5H6.99996C6.99996 10.3113 7.96342 11.8971 9.40342 12.7737L9.92339 11.9195ZM9.51758 11.8683C6.36083 12.8309 3.98356 15.5804 3.56544 18.9402L4.55778 19.0637C4.92638 16.1018 7.02381 13.6742 9.80923 12.8249L9.51758 11.8683ZM3.56544 18.9402C3.45493 19.8282 4.19055 20.5 4.99996 20.5V19.5C4.70481 19.5 4.53188 19.2719 4.55778 19.0637L3.56544 18.9402ZM4.99996 20.5H19V19.5H4.99996V20.5ZM19 20.5C19.8094 20.5 20.545 19.8282 20.4345 18.9402L19.4421 19.0637C19.468 19.2719 19.2951 19.5 19 19.5V20.5ZM20.4345 18.9402C20.0164 15.5804 17.6391 12.8309 14.4823 11.8683L14.1907 12.8249C16.9761 13.6742 19.0735 16.1018 19.4421 19.0637L20.4345 18.9402Z"
         fill="#000000"
         id="path1" />
    </g>
  </g>
  <defs
     id="defs4">
    <filter
       id="filter0_d_15_82"
       x="2.55444"
       y="3.5"
       width="18.8911"
       height="19"
       filterUnits="userSpaceOnUse"
       color-interpolation-filters="sRGB">
      <feFlood
         flood-opacity="0"
         result="BackgroundImageFix"
         id="feFlood2" />
      <feColorMatrix
         in="SourceAlpha"
         type="matrix"
         values="0 0 0 0 0 0 0 0 0 0 0 0 0 0 0 0 0 0 127 0"
         result="hardAlpha"
         id="feColorMatrix2" />
      <feOffset
         dy="1"
         id="feOffset2" />
      <feGaussianBlur
         stdDeviation="0.5"
         id="feGaussianBlur2" />
      <feColorMatrix
         type="matrix"
         values="0 0 0 0 0 0 0 0 0 0 0 0 0 0 0 0 0 0 0.1 0"
         id="feColorMatrix3" />
      <feBlend
         mode="normal"
         in2="BackgroundImageFix"
         result="effect1_dropShadow_15_82"
         id="feBlend3" />
      <feBlend
         mode="normal"
         in="SourceGraphic"
         in2="effect1_dropShadow_15_82"
         result="shape"
         id="feBlend4" />
    </filter>
    <clipPath
       id="clip0_15_82">
      <rect
         width="24"
         height="24"
         fill="white"
         id="rect4" />
    </clipPath>
  </defs>
  <path
     style="fill:#ffffff;stroke-width:0.98401"
     d="m 398.38177,116.5552 c -54.61491,0.47929 -108.188,29.36277 -137.72295,75.46125 -14.31929,22.41652 -24.50724,48.18017 -26.32418,74.86932 -0.32985,20.83891 -1.49593,42.1911 5.33769,62.24677 8.00434,28.81844 24.75371,54.50366 45.5041,75.74907 3.38663,3.35607 -5.79244,4.07177 -7.58572,6.28652 -63.26796,30.10444 -114.41236,84.6411 -140.36845,149.72905 -9.76096,24.54298 -17.14874,50.48449 -18.55298,76.95837 -0.23337,21.78418 18.3011,41.39667 39.3864,44.62243 128.96269,1.29427 257.94024,0.82349 386.90891,0.72385 32.91569,-0.35427 65.90888,0.34129 98.77881,-0.94061 20.50481,-4.62986 38.42422,-23.35357 37.61999,-45.12253 -2.23216,-32.33839 -12.10811,-63.91805 -25.91549,-93.12548 -28.31193,-58.7601 -77.35206,-107.1987 -136.5453,-134.64214 -2.39241,-1.44001 -7.747,-2.43923 -3.48324,-5.26783 26.66959,-26.82223 45.6621,-61.96983 49.9957,-99.79138 0.62881,-23.88018 2.01466,-48.61984 -6.59857,-71.40036 -18.16127,-59.51689 -72.55419,-105.50923 -133.98946,-114.50552 -8.74437,-1.3403 -17.59898,-1.96288 -26.44526,-1.85078 z m 1.13007,34.12707 c 38.50132,-1.53835 76.52317,17.08967 101.40106,46.0409 22.66852,26.25353 34.46011,61.32719 31.55481,95.95603 -2.14215,40.6739 -24.92698,79.09093 -58.78613,101.60893 -6.93626,4.31407 -14.63259,11.38594 -12.13676,20.4624 2.06389,11.87997 15.99258,14.05418 25.32635,17.68658 60.54702,22.17895 111.44596,69.32471 138.9956,127.43566 11.17421,24.60239 19.66407,50.99721 21.89614,77.92321 -0.41448,7.10692 -7.78012,12.37294 -14.70056,11.31611 -81.93982,1.35575 -163.90467,0.4956 -245.85448,0.76391 -73.75141,-0.28171 -147.52134,0.59925 -221.26053,-0.81613 -8.28464,1.10788 -15.77893,-7.5163 -13.45849,-15.57855 4.63203,-34.5623 16.60461,-68.30898 34.87662,-98.08195 31.40412,-49.9414 80.34397,-89.12423 136.84079,-106.84963 8.26691,-2.29585 15.73401,-9.51884 14.58333,-18.68081 -1.3808,-11.23043 -13.97953,-15.13756 -21.10048,-22.1729 -30.62984,-24.34011 -51.10662,-62.48971 -50.27329,-102.08134 -2.7397,-54.00698 33.18038,-106.36872 83.1856,-125.81068 15.53385,-6.21443 32.07804,-9.92918 48.91042,-9.12174 z"
     id="path4"
     transform="scale(0.03)" />
</svg>
