<?xml version="1.0" encoding="UTF-8" standalone="no"?>
<svg
   version="1.1"
   width="500"
   height="500"
   id="svg6"
   sodipodi:docname="QuickCheckNewicon.svg"
   inkscape:version="1.3.2 (091e20e, 2023-11-25, custom)"
   xmlns:inkscape="http://www.inkscape.org/namespaces/inkscape"
   xmlns:sodipodi="http://sodipodi.sourceforge.net/DTD/sodipodi-0.dtd"
   xmlns="http://www.w3.org/2000/svg"
   xmlns:svg="http://www.w3.org/2000/svg">
  <defs
     id="defs6" />
  <sodipodi:namedview
     id="namedview6"
     pagecolor="#505050"
     bordercolor="#eeeeee"
     borderopacity="1"
     inkscape:showpageshadow="0"
     inkscape:pageopacity="0"
     inkscape:pagecheckerboard="0"
     inkscape:deskcolor="#505050"
     inkscape:zoom="1.1497556"
     inkscape:cx="230.04889"
     inkscape:cy="246.57414"
     inkscape:window-width="1920"
     inkscape:window-height="1009"
     inkscape:window-x="1912"
     inkscape:window-y="-8"
     inkscape:window-maximized="1"
     inkscape:current-layer="svg6" />
  <path
     d="M0 0 C3.10933749 0.78682296 5.30364594 1.77706357 8.04199219 3.42236328 C9.43587158 4.24885376 9.43587158 4.24885376 10.85791016 5.09204102 C11.85193848 5.69346924 12.8459668 6.29489746 13.87011719 6.91455078 C16.0337184 8.20048347 18.1977972 9.48561288 20.36230469 10.77001953 C21.47831055 11.43565918 22.59431641 12.10129883 23.74414062 12.78710938 C29.13264898 15.98327263 34.56366924 19.10460628 39.99511719 22.22705078 C42.17748638 23.48472876 44.35977761 24.74254204 46.54199219 26.00048828 C48.73465769 27.26358347 50.92736607 28.52660422 53.12011719 29.78955078 C66.79566033 37.66617667 80.45972676 45.5607517 94.0859375 53.52246094 C104.64632001 59.68874132 115.24138484 65.79451028 125.83789062 71.8984375 C132.34882975 75.64983102 138.85674913 79.40646072 145.36523438 83.16210938 C150.80597055 86.30137324 156.24743196 89.43936575 161.69042969 92.57470703 C172.69958874 98.91774869 183.70068344 105.27447822 194.68261719 111.66455078 C195.71854004 112.265979 196.75446289 112.86740723 197.82177734 113.48706055 C199.23982666 114.31355103 199.23982666 114.31355103 200.68652344 115.15673828 C201.52127197 115.64255371 202.35602051 116.12836914 203.21606445 116.62890625 C205.12011719 117.78955078 205.12011719 117.78955078 206.12011719 118.78955078 C206.2181538 121.86144502 206.25002531 124.91087068 206.2403717 127.98316956 C206.24165334 129.44840471 206.24165334 129.44840471 206.24296087 130.94324058 C206.24461864 134.24302167 206.23908947 137.54275283 206.23364258 140.8425293 C206.23336074 143.19732665 206.23351837 145.55212409 206.23408508 147.90692139 C206.23437321 154.32195447 206.2284741 160.73696904 206.22151113 167.1519978 C206.21543668 173.17018224 206.21488931 179.18836887 206.21385925 185.20655584 C206.21166842 197.12997628 206.20500748 209.0533899 206.19555664 220.97680664 C206.18638333 232.56209275 206.1793021 244.14737701 206.17504883 255.73266602 C206.17465474 256.80310985 206.17465474 256.80310985 206.1742527 257.8951788 C206.1729477 261.47510119 206.17168398 265.05502358 206.17044079 268.63494599 C206.1600672 298.35315211 206.14237391 328.07135112 206.12011719 357.78955078 C202.35295482 356.31984004 198.92958454 354.63934298 195.42089844 352.62158203 C194.30666504 351.98285156 193.19243164 351.34412109 192.04443359 350.68603516 C190.84045064 349.99145022 189.63651295 349.29678682 188.43261719 348.60205078 C187.18456078 347.88498714 185.93634884 347.16819415 184.68798828 346.45166016 C180.82944298 344.23543872 176.9746116 342.01280763 173.12011719 339.78955078 C171.91002177 339.09207333 170.69989872 338.39464381 169.48974609 337.69726562 C165.05060164 335.13877834 160.61184745 332.57962546 156.17602539 330.01538086 C155.19077881 329.44585693 154.20553223 328.87633301 153.19042969 328.28955078 C151.82070983 327.47097973 151.82070983 327.47097973 150.42331886 326.63587189 C147.12884755 324.72141128 147.12884755 324.72141128 143.52391624 323.23313141 C133.9913457 318.97264621 133.9913457 318.97264621 131.83647537 313.57304382 C131.35097062 309.50627274 131.31835079 305.64508493 131.43896484 301.56103516 C131.43304435 300.0228941 131.4209617 298.48476636 131.4032135 296.94671631 C131.37256824 292.78837558 131.42769241 288.63514178 131.49867296 284.47746086 C131.5582241 280.12659009 131.5383046 275.77608612 131.52694702 271.42492676 C131.51746922 263.19363523 131.57907848 254.96448459 131.66646802 246.73371363 C131.76251313 237.3600806 131.77895303 227.98683109 131.78882909 218.61277294 C131.81091379 199.33746184 131.93256845 180.06392653 132.12011719 160.78955078 C131.42530746 160.40177963 130.73049774 160.01400848 130.01463318 159.61448669 C126.79789717 157.81843643 123.58205154 156.02079749 120.36621094 154.22314453 C118.72767151 153.30873596 118.72767151 153.30873596 117.05603027 152.37585449 C109.7215347 148.27401513 102.43479683 144.09765858 95.18261719 139.85205078 C93.5234729 138.88138672 93.5234729 138.88138672 91.83081055 137.89111328 C90.96593018 137.38322266 90.1010498 136.87533203 89.20996094 136.35205078 C82.904413 132.65741768 76.57717282 129.00102397 70.24511719 125.35205078 C69.16496338 124.72951416 68.08480957 124.10697754 66.97192383 123.46557617 C64.78215385 122.20378252 62.59229364 120.94214544 60.40234375 119.68066406 C54.97351779 116.55274932 49.54690355 113.42100235 44.12011719 110.28955078 C37.98300032 106.74834875 31.84573958 103.20739968 25.70675659 99.66943359 C23.31585121 98.29148141 20.92513047 96.91320906 18.53442383 95.53491211 C16.85027756 94.56414096 15.16586487 93.59383204 13.48144531 92.62353516 C12.45857422 92.03378906 11.43570313 91.44404297 10.38183594 90.83642578 C9.48424561 90.31918945 8.58665527 89.80195312 7.66186523 89.26904297 C5.12011719 87.78955078 5.12011719 87.78955078 2.60375977 85.97412109 C0.17239451 84.48766789 0.17239451 84.48766789 -2.40014648 85.44287109 C-3.21845947 85.88727539 -4.03677246 86.33167969 -4.87988281 86.78955078 C-5.63825439 87.1849707 -6.39662598 87.58039063 -7.17797852 87.98779297 C-7.96261475 88.4328418 -8.74725098 88.87789063 -9.55566406 89.33642578 C-10.45325439 89.84415527 -11.35084473 90.35188477 -12.27563477 90.875 C-13.71942505 91.69895264 -13.71942505 91.69895264 -15.19238281 92.53955078 C-16.2071167 93.11592285 -17.22185059 93.69229492 -18.26733398 94.28613281 C-27.45797061 99.51995479 -36.59176495 104.8497912 -45.71972656 110.19189453 C-55.3193052 115.80633754 -64.96124233 121.34755398 -74.59765625 126.8984375 C-78.94595239 129.40378575 -83.29280622 131.911629 -87.6394043 134.41992188 C-89.78706112 135.65903556 -91.935007 136.89764842 -94.08325195 138.13574219 C-99.15792238 141.0609908 -104.22994192 143.99057666 -109.29324341 146.93545532 C-111.68303949 148.32503708 -114.07425117 149.7121725 -116.46557617 151.09912109 C-118.1512887 152.07818331 -119.83494868 153.06077684 -121.51855469 154.04345703 C-122.54142578 154.63642578 -123.56429687 155.22939453 -124.61816406 155.84033203 C-125.51575439 156.36280518 -126.41334473 156.88527832 -127.33813477 157.42358398 C-129.87988281 158.78955078 -129.87988281 158.78955078 -134.87988281 160.78955078 C-134.54988281 212.26955078 -134.21988281 263.74955078 -133.87988281 316.78955078 C-126.28988281 321.07955078 -118.69988281 325.36955078 -110.87988281 329.78955078 C-106.93464674 332.07006113 -102.99490577 334.35448359 -99.06738281 336.66455078 C-87.4617314 343.46055796 -75.81593591 350.18545961 -64.16210938 356.8984375 C-58.73328338 360.02635227 -53.30669646 363.15814644 -47.87988281 366.28955078 C-45.73796384 367.52524192 -43.59603673 368.76091896 -41.45410156 369.99658203 C-37.4752585 372.29204536 -33.49657509 374.58778492 -29.51809692 376.88388062 C-27.72921363 377.91628556 -25.94029564 378.94863034 -24.15136719 379.98095703 C-21.90650645 381.27641026 -19.66171091 382.57197648 -17.41699219 383.86767578 C-15.43347391 385.01225513 -13.44809859 386.15362536 -11.46044922 387.29101562 C-9.87001474 388.21458108 -8.291087 389.1587366 -6.73291016 390.13574219 C-3.62638659 392.21554234 -3.62638659 392.21554234 -0.04614258 392.578125 C2.76013924 391.55656631 5.20352037 390.17593829 7.79199219 388.68408203 C9.48219482 387.71426392 9.48219482 387.71426392 11.20654297 386.72485352 C12.42781707 386.01739533 13.64900633 385.30979068 14.87011719 384.60205078 C16.13667807 383.87261213 17.40344508 383.1435313 18.67041016 382.41479492 C26.54481736 377.88009865 34.39677941 373.30668088 42.24511719 368.72705078 C43.1998291 368.17178711 44.15454102 367.61652344 45.13818359 367.04443359 C49.90347541 364.26926281 54.65520057 361.4748311 59.37942505 358.63041687 C61.75206301 357.20533631 64.13246275 355.79355401 66.51409912 354.38357544 C68.20646649 353.37508298 69.88830138 352.34898203 71.56982422 351.32250977 C73.11452393 350.41094116 73.11452393 350.41094116 74.69042969 349.48095703 C76.0480542 348.66413452 76.0480542 348.66413452 77.43310547 347.83081055 C80.84397764 346.50904335 82.62167293 346.80103356 86.12011719 347.78955078 C88.77539063 349.04199219 88.77539063 349.04199219 91.47949219 350.64111328 C92.49930176 351.23738525 93.51911133 351.83365723 94.56982422 352.44799805 C95.6589209 353.09696045 96.74801758 353.74592285 97.87011719 354.41455078 C99.02562998 355.09383295 100.18172856 355.77211951 101.33837891 356.44946289 C103.7408661 357.85736672 106.1407796 359.26951769 108.5390625 360.68457031 C114.08283932 363.95012117 119.66669807 367.14618881 125.24511719 370.35205078 C134.54351223 375.71136832 143.81949284 381.1081356 153.0859375 386.52246094 C160.37634401 390.77937972 167.6817112 395.0097793 174.99511719 399.22705078 C176.05867432 399.8409668 177.12223145 400.45488281 178.21801758 401.08740234 C183.33727604 404.04045 188.46026951 406.9865975 193.59411621 409.91419983 C196.00338382 411.28873784 198.41062768 412.66679767 200.81768799 414.04519653 C202.52116761 415.01872017 204.22759541 415.98707928 205.93408203 416.95532227 C206.96355957 417.54514893 207.99303711 418.13497559 209.05371094 418.74267578 C209.9617749 419.25991211 210.86983887 419.77714844 211.80541992 420.31005859 C213.90791518 421.65391697 215.40276307 423.00605312 217.12011719 424.78955078 C211.00653019 425.09712587 204.89277501 425.40098434 198.77880859 425.70092773 C194.01289617 425.93510582 189.24746958 426.17592364 184.48237991 426.42621899 C169.00405002 427.23549713 153.5457773 427.8708094 138.04753685 428.12130165 C133.16563394 428.20731322 128.28445416 428.32877874 123.40331364 428.44996929 C119.46751899 428.54397867 115.53465777 428.61276735 111.59768677 428.6222229 C91.54579269 428.68541618 77.33223286 431.11363391 60.47784424 443.13174438 C57.41947898 445.28219581 54.26907698 447.0926576 51.00292969 448.91064453 C50.03959717 449.4659082 49.07626465 450.02117187 48.08374023 450.59326172 C47.14699463 451.13241211 46.21024902 451.6715625 45.24511719 452.22705078 C43.08756385 453.47053819 40.93001181 454.71402785 38.77246094 455.95751953 C36.55501705 457.23487027 34.33756902 458.51221382 32.12011719 459.78955078 C27.92380408 462.2073874 23.72791435 464.6259574 19.53240967 467.04519653 C17.84913497 468.01561551 16.16553832 468.98547597 14.48193359 469.95532227 C13.45890137 470.54514893 12.43586914 471.13497559 11.38183594 471.74267578 C10.48424561 472.25991211 9.58665527 472.77714844 8.66186523 473.31005859 C6.08057663 474.7664999 6.08057663 474.7664999 3.60375977 476.54248047 C1.12011719 477.78955078 1.12011719 477.78955078 -1.35742188 477.65258789 C-4.19339342 476.68228597 -6.63063303 475.45999111 -9.23925781 473.98095703 C-10.2633374 473.40418213 -11.28741699 472.82740723 -12.3425293 472.2331543 C-13.42735596 471.61239014 -14.51218262 470.99162598 -15.62988281 470.35205078 C-16.756604 469.71388428 -17.8833252 469.07571777 -19.04418945 468.41821289 C-26.52191872 464.17109343 -33.95202859 459.84785568 -41.34863281 455.46142578 C-46.97856136 452.1295317 -52.64907451 448.86807405 -58.31738281 445.60205078 C-59.42460693 444.96404541 -60.53183105 444.32604004 -61.67260742 443.66870117 C-63.94325349 442.36065602 -66.21400639 441.0527963 -68.48486328 439.74511719 C-73.95158256 436.59623027 -79.41565927 433.44276588 -84.87988281 430.28955078 C-91.40220721 426.52589713 -97.92502045 422.76310456 -104.45019531 419.00439453 C-115.93437101 412.38732186 -127.40185175 405.74321101 -138.84570312 399.05664062 C-146.13610743 394.79972314 -153.44126878 390.56895865 -160.75488281 386.35205078 C-162.35565674 385.42900146 -162.35565674 385.42900146 -163.98876953 384.48730469 C-169.06590034 381.56091879 -174.14442012 378.63696475 -179.22494507 375.71647644 C-181.00489621 374.69305823 -182.78448951 373.66902065 -184.56396484 372.64477539 C-186.79337618 371.36176451 -189.02347657 370.0799499 -191.25439453 368.79956055 C-192.77444092 367.92448853 -192.77444092 367.92448853 -194.32519531 367.03173828 C-195.2070752 366.52497559 -196.08895508 366.01821289 -196.99755859 365.49609375 C-197.94872559 364.93293457 -198.89989258 364.36977539 -199.87988281 363.78955078 C-200.53739159 363.48528372 -201.19490036 363.18101666 -201.87233365 362.86752939 C-207.40942461 360.03648496 -207.40942461 360.03648496 -208.64186263 356.76994801 C-208.95699677 354.20818989 -209.01348179 351.74568995 -208.98995972 349.16442871 C-209.01231756 348.18927638 -209.03467541 347.21412404 -209.05771077 346.20942163 C-209.12246227 342.93799702 -209.12989721 339.66899332 -209.13720703 336.39697266 C-209.17096485 334.05277896 -209.20791876 331.70862942 -209.24783325 329.36453247 C-209.34425018 322.99222842 -209.38759998 316.62064555 -209.41552877 310.24770927 C-209.4345418 306.26427474 -209.463441 302.2810328 -209.49554825 298.29768372 C-209.58345034 287.25723317 -209.65744838 276.21691674 -209.67680168 265.17610931 C-209.67805509 264.46982853 -209.67930849 263.76354774 -209.68059988 263.0358645 C-209.68309809 261.60419178 -209.68559358 260.17251906 -209.68808638 258.74084634 C-209.68934307 258.03020982 -209.69059976 257.3195733 -209.69189453 256.58740234 C-209.69314135 255.87589234 -209.69438817 255.16438234 -209.69567277 254.43131143 C-209.71852322 242.91546092 -209.84226231 231.40312063 -210.0103284 219.88856167 C-210.18170644 208.05129929 -210.2699341 196.21578476 -210.27519238 184.37725878 C-210.28001597 177.73593938 -210.321851 171.09849266 -210.45046616 164.45823669 C-210.56907735 158.20450942 -210.58167146 151.95923623 -210.51459885 145.70483017 C-210.50790487 143.41701842 -210.53847572 141.12873064 -210.61006927 138.84202957 C-211.02474937 124.74975001 -211.02474937 124.74975001 -207.87988281 118.78955078 C-202.41901522 113.29025572 -195.46934272 110.05836221 -188.45982385 106.95621586 C-185.12859975 105.449816 -182.08040274 103.66382556 -178.95800781 101.76611328 C-177.01599792 100.64771211 -175.07329875 99.5305069 -173.12988281 98.41455078 C-170.92673889 97.14635449 -168.72361446 95.87812433 -166.52050781 94.60986328 C-165.42287109 93.97854492 -164.32523438 93.34722656 -163.19433594 92.69677734 C-157.75337716 89.56590154 -152.31683033 86.42738536 -146.87988281 83.28955078 C-144.71323783 82.0395132 -142.54657115 80.78951322 -140.37988281 79.53955078 C-139.30738281 78.92080078 -138.23488281 78.30205078 -137.12988281 77.66455078 C-75.37988281 42.03955078 -75.37988281 42.03955078 -72.12939453 40.16430664 C-69.96431211 38.9151956 -67.79927299 37.66600949 -65.63427734 36.41674805 C-60.19372575 33.27752769 -54.75241066 30.13964515 -49.30957031 27.00439453 C-38.3407125 20.68444875 -27.38087896 14.34943191 -16.44238281 7.97705078 C-15.42321777 7.38400146 -14.40405273 6.79095215 -13.35400391 6.17993164 C-12.41508301 5.63216064 -11.47616211 5.08438965 -10.50878906 4.52001953 C-9.68451416 4.03944092 -8.86023926 3.5588623 -8.01098633 3.0637207 C-2.57238105 -0.18797834 -2.57238105 -0.18797834 0 0 Z "
     fill="#00BDC4"
     transform="translate(244.8798828125,11.21044921875)"
     id="path2" />
  <path
     d="M0 0 C14.52 0 29.04 0 44 0 C44 14.85 44 29.7 44 45 C29.48 45 14.96 45 0 45 C0 30.15 0 15.3 0 0 Z "
     fill="#07BFC5"
     transform="translate(250,255)"
     id="path3" />
  <path
     d="M0 0 C14.52 0 29.04 0 44 0 C44 14.85 44 29.7 44 45 C29.48 45 14.96 45 0 45 C0 30.15 0 15.3 0 0 Z "
     fill="#07BFC5"
     transform="translate(195,255)"
     id="path4" />
  <path
     d="M0 0 C14.52 0 29.04 0 44 0 C44 14.85 44 29.7 44 45 C29.48 45 14.96 45 0 45 C0 30.15 0 15.3 0 0 Z "
     fill="#07BFC5"
     transform="translate(250,200)"
     id="path5" />
  <path
     d="M0 0 C14.52 0 29.04 0 44 0 C44 14.85 44 29.7 44 45 C29.48 45 14.96 45 0 45 C0 30.15 0 15.3 0 0 Z "
     fill="#07BFC5"
     transform="translate(195,200)"
     id="path6" />
</svg>
