<?xml version="1.0" encoding="UTF-8" standalone="no"?>
<!-- Uploaded to: SVG Repo, www.svgrepo.com, Generator: SVG Repo Mixer Tools -->

<svg
   width="800px"
   height="800px"
   viewBox="0 0 48 48"
   id="Layer_2"
   data-name="Layer 2"
   version="1.1"
   sodipodi:docname="settingsbutton.svg"
   inkscape:version="1.3.2 (091e20e, 2023-11-25, custom)"
   xmlns:inkscape="http://www.inkscape.org/namespaces/inkscape"
   xmlns:sodipodi="http://sodipodi.sourceforge.net/DTD/sodipodi-0.dtd"
   xmlns="http://www.w3.org/2000/svg"
   xmlns:svg="http://www.w3.org/2000/svg">
  <sodipodi:namedview
     id="namedview1"
     pagecolor="#505050"
     bordercolor="#eeeeee"
     borderopacity="1"
     inkscape:showpageshadow="0"
     inkscape:pageopacity="0"
     inkscape:pagecheckerboard="0"
     inkscape:deskcolor="#505050"
     inkscape:zoom="1.01625"
     inkscape:cx="400"
     inkscape:cy="163.83764"
     inkscape:window-width="1920"
     inkscape:window-height="1009"
     inkscape:window-x="1912"
     inkscape:window-y="-8"
     inkscape:window-maximized="1"
     inkscape:current-layer="Layer_2" />
  <defs
     id="defs1">
    <style
       id="style1">.cls-1{fill:none;stroke:#000000;stroke-linecap:round;stroke-linejoin:round;}</style>
  </defs>
  <path
     style="fill:#ffffff;stroke-width:0.98401"
     d="m 401.0359,50.624616 c -25.97927,0.339361 -52.079,-0.562457 -77.9847,1.145449 -9.02816,3.574364 -15.81316,12.234904 -16.21219,22.096246 -4.76419,27.862619 -8.30417,55.920149 -12.45478,83.878919 -18.15591,7.76479 -35.14059,18.11131 -51.23193,29.50301 -28.42254,-11.45614 -56.80667,-23.04827 -85.25332,-34.41921 -10.28198,-0.44844 -21.97766,2.83607 -26.78736,12.81711 -23.83463,40.80794 -47.828779,81.57359 -70.577718,122.98009 -3.665688,11.87351 2.008222,25.47301 12.71677,31.67822 21.214983,16.86036 42.611548,33.48851 63.936058,50.20985 -2.46996,15.87667 -1.07938,32.14297 -1.15558,48.16755 -0.55572,3.73993 1.46247,8.34975 0.38073,11.41038 -23.45452,18.62725 -47.480348,36.59262 -70.479377,55.76071 -7.815278,9.22661 -8.908802,23.78677 -1.187162,33.46034 22.640043,39.61717 45.024179,79.42081 68.614899,118.47308 7.33395,9.70449 21.62495,11.39407 32.07071,5.97309 26.0389,-10.00106 51.80735,-20.69486 77.72518,-31.00576 15.76855,11.97886 33.39137,21.21705 51.09548,29.96041 4.56926,30.46626 7.84062,61.18122 13.80305,91.40913 3.9485,10.12418 15.14673,16.97583 25.91098,15.2554 46.02571,-0.32229 92.08001,0.6409 138.0881,-0.67399 10.00406,-0.61551 18.97671,-8.9354 20.09148,-18.98447 5.55653,-28.55936 8.1498,-57.65335 13.15152,-86.2796 5.04445,-4.96088 12.86914,-6.21907 18.68681,-10.28566 11.65375,-5.73188 21.94179,-14.40071 33.57141,-19.72279 27.38916,10.36306 54.01615,22.78796 81.74009,32.22055 8.84241,2.23896 18.92232,0.80484 25.22589,-6.31769 9.61108,-13.48142 17.02272,-28.54753 25.70186,-42.67905 15.95181,-28.45926 33.58348,-56.05481 47.86312,-85.40862 5.55799,-10.438 -0.63716,-23.43187 -9.90427,-29.42319 -21.4855,-17.80973 -43.5896,-34.85221 -65.43757,-52.21157 2.1065,-18.67582 1.96257,-37.6687 0.35347,-56.37722 -0.56687,-6.0649 8.47294,-8.16213 12.05348,-12.5141 19.9375,-16.16342 41.12854,-30.89918 60.04462,-48.26351 7.13136,-8.93566 7.15273,-22.74456 0.0608,-31.77672 -22.60494,-39.56372 -44.95878,-79.31408 -68.51679,-118.30976 -5.18652,-6.93732 -13.91214,-10.19137 -22.41697,-8.8042 -15.17665,2.87989 -28.96634,10.64678 -43.42942,15.84122 -14.66002,5.96159 -29.31742,11.92966 -43.97641,17.89378 -15.78842,-12.00364 -33.43593,-21.26119 -51.16851,-30.01614 -4.56926,-30.46626 -7.84062,-61.181218 -13.80305,-91.409131 -3.9485,-10.12457 -15.14673,-16.974644 -25.91098,-15.257228 -21.66615,0.0017 -43.33231,0.0034 -64.99846,0.0051 z m 71.15237,16.837715 c 6.72641,4.691012 4.94334,13.97816 6.81802,20.947607 4.01418,26.247922 6.70479,52.787902 11.87625,78.810232 6.70773,6.95344 16.87906,9.25344 25.00398,14.25694 13.62111,6.45961 25.27629,16.16852 38.37624,23.45447 5.75176,0.2798 11.17573,-3.91983 16.73855,-5.30255 25.77171,-9.70579 51.07084,-21.11302 77.09986,-29.81815 6.99421,1.53929 8.27854,10.23004 12.37599,15.06553 20.41469,34.8869 41.3489,69.52918 60.17894,105.30252 1.77215,3.81176 5.25061,10.02299 0.11381,13.046 -24.32139,20.18877 -50.36611,38.34117 -73.81034,59.56143 -3.21392,6.15715 0.56902,13.5016 -0.13264,20.08998 0.65844,16.92766 0.27401,33.90024 -1.08009,50.73759 0.76611,6.25475 8.15892,8.77811 11.91109,13.09864 21.41572,18.08183 44.42919,34.37714 65.05117,53.32971 2.47959,5.94322 -3.92562,10.79327 -5.71393,16.0106 -21.42288,37.59919 -42.65667,75.36247 -65.53645,112.08942 -5.03613,4.97143 -11.28554,-1.43805 -16.64318,-2.33815 -26.94537,-9.97426 -53.20842,-22.07102 -80.47206,-31.01057 -8.8137,3.15178 -15.29662,10.66782 -23.6084,14.94688 -12.28218,8.32897 -26.2573,13.60786 -38.98961,21.06558 -3.78785,6.64642 -3.26404,15.10118 -5.0241,22.45572 -4.14426,24.86009 -6.34339,50.16111 -11.65026,74.75562 -2.74472,7.15513 -11.89669,3.79393 -17.82172,4.52029 -43.14589,0 -86.29177,0 -129.43766,0 -6.72641,-4.69101 -4.94334,-13.97816 -6.81802,-20.94761 -4.01634,-26.23057 -6.69542,-52.76218 -11.86472,-78.7641 -7.44744,-7.27279 -18.19048,-10.05724 -27.01423,-15.39655 -12.96897,-6.11155 -23.84372,-15.67568 -36.40827,-22.38982 -6.0348,-0.0401 -11.72008,4.12824 -17.55784,5.6875 -25.55842,9.56618 -50.52961,21.07544 -76.44009,29.43511 -6.87318,-1.75371 -8.14314,-10.28563 -12.22832,-15.13758 -20.43065,-34.98823 -41.40102,-69.75076 -60.289586,-105.61316 -1.856921,-3.785 -4.982851,-9.86645 0.106702,-12.69406 24.424784,-20.17328 50.283384,-38.75031 74.160134,-59.49416 0.61216,-17.79243 -2.63172,-35.64039 -0.53425,-53.45878 0.0811,-7.07689 1.65523,-14.52178 0.25365,-21.45089 -24.6925,-21.12153 -51.35238,-39.9229 -75.962868,-61.10278 -2.471393,-4.76029 2.311799,-9.93214 3.778134,-14.27773 20.997984,-38.31141 42.927364,-76.14568 65.563814,-113.50133 2.30526,-4.70408 8.07797,-3.81096 11.84078,-1.51829 29.13285,10.49709 57.49621,23.37268 86.78698,33.28528 10.08,-4.36376 18.27362,-12.31253 28.03848,-17.41013 11.5855,-7.55018 25.14656,-12.04404 36.24312,-20.259 6.05208,-31.92538 8.85058,-64.48824 15.18105,-96.323409 2.35496,-5.583592 9.70413,-2.20205 14.27966,-3.351784 44.41636,-0.659706 88.84255,-0.294258 133.26223,-0.392066 z"
     id="path2"
     transform="scale(0.06)" />
  <path
     style="fill:#ffffff;stroke-width:0.98401"
     d="m 396.4887,272.46887 c -54.61729,-0.44954 -105.55136,40.2793 -119.79432,92.56216 -11.87181,42.11577 -1.14861,90.26135 29.46721,121.94237 22.10635,24.0568 53.80753,39.34171 86.49671,40.73633 18.34869,0.0874 37.06282,-1.19227 54.08166,-8.67196 37.90822,-14.56865 67.67036,-48.16554 77.27304,-87.66705 4.60358,-18.31818 4.34122,-37.72031 1.50014,-56.29192 -7.93013,-41.42632 -37.92045,-77.35228 -76.86043,-93.29134 -16.43361,-7.3152 -34.26237,-10.00988 -52.16401,-9.31859 z m 2.74831,16.4418 c 42.20599,-0.4517 83.70416,25.25782 101.13391,63.95295 18.23667,37.51078 12.28722,84.80549 -14.10477,116.99723 -28.05559,35.55925 -78.91982,50.46718 -121.56398,35.43094 -41.80716,-13.33456 -73.34968,-53.97076 -75.52908,-97.79622 -2.88797,-39.34706 16.44857,-79.75556 50.34254,-100.50704 17.7171,-11.62201 38.50556,-18.25103 59.72138,-18.07786 z"
     id="path3"
     transform="scale(0.06)" />
</svg>
