<?xml version="1.0" encoding="UTF-8" standalone="no"?>
<!-- Created with Inkscape (http://www.inkscape.org/) -->

<svg
   width="210mm"
   height="297mm"
   viewBox="0 0 210 297"
   version="1.1"
   id="svg1"
   inkscape:version="1.3.2 (091e20e, 2023-11-25, custom)"
   sodipodi:docname="Settingsnav1.svg"
   xmlns:inkscape="http://www.inkscape.org/namespaces/inkscape"
   xmlns:sodipodi="http://sodipodi.sourceforge.net/DTD/sodipodi-0.dtd"
   xmlns="http://www.w3.org/2000/svg"
   xmlns:svg="http://www.w3.org/2000/svg">
  <sodipodi:namedview
     id="namedview1"
     pagecolor="#505050"
     bordercolor="#eeeeee"
     borderopacity="1"
     inkscape:showpageshadow="0"
     inkscape:pageopacity="0"
     inkscape:pagecheckerboard="0"
     inkscape:deskcolor="#505050"
     inkscape:document-units="mm"
     inkscape:zoom="0.72426347"
     inkscape:cx="396.95499"
     inkscape:cy="450.8028"
     inkscape:window-width="1920"
     inkscape:window-height="1009"
     inkscape:window-x="1912"
     inkscape:window-y="-8"
     inkscape:window-maximized="1"
     inkscape:current-layer="layer1" />
  <defs
     id="defs1" />
  <g
     inkscape:label="Layer 1"
     inkscape:groupmode="layer"
     id="layer1">
    <path
       style="fill:#ffffff;stroke-width:0.260353"
       d="m 108.38967,51.60854 c -6.87368,0.08979 -13.779239,-0.148817 -20.633456,0.303066 -2.3887,0.945718 -4.183898,3.237152 -4.289475,5.846299 -1.260525,7.371985 -2.197145,14.79554 -3.295327,22.192965 -4.803751,2.054434 -9.297615,4.79195 -13.555115,7.806004 -7.520131,-3.031103 -15.030099,-6.098188 -22.556608,-9.106749 -2.720441,-0.11865 -5.814923,0.750377 -7.08749,3.391194 -6.306246,10.797101 -12.654698,21.583011 -18.673688,32.538481 -0.96988,3.14154 0.531342,6.73974 3.364645,8.38153 5.613132,4.46097 11.274306,8.86051 16.916416,13.2847 -0.65351,4.2007 -0.285586,8.50449 -0.305747,12.74433 -0.147034,0.98952 0.386945,2.2092 0.100735,3.01899 -6.205675,4.92846 -12.562509,9.6818 -18.647669,14.75336 -2.067792,2.44121 -2.357121,6.29358 -0.314103,8.85305 5.990178,10.48204 11.912647,21.01342 18.154359,31.346 1.940441,2.56765 5.721601,3.01468 8.485375,1.58038 6.889459,-2.64611 13.707362,-5.47551 20.564788,-8.20361 4.172096,3.16941 8.8348,5.61368 13.519013,7.92703 1.20895,8.06086 2.074497,16.18753 3.652057,24.18533 1.044707,2.67869 4.007572,4.49152 6.855613,4.03633 12.177637,-0.0853 24.362837,0.16957 36.535817,-0.17833 2.6469,-0.16285 5.02092,-2.36416 5.31587,-5.02297 1.47016,-7.55634 2.1563,-15.25412 3.47967,-22.82815 1.33468,-1.31257 3.40496,-1.64546 4.94422,-2.72141 3.08339,-1.51656 5.80543,-3.81019 8.88243,-5.21833 7.24672,2.7419 14.29178,6.02932 21.62707,8.52503 2.33955,0.59239 5.00653,0.21294 6.67435,-1.67156 2.54293,-3.56696 4.50393,-7.5532 6.80028,-11.29217 4.22059,-7.52984 8.88563,-14.83116 12.66379,-22.59769 1.47055,-2.76172 -0.16858,-6.19969 -2.62051,-7.78489 -5.6847,-4.71216 -11.53308,-9.22131 -17.31369,-13.81431 0.55735,-4.94131 0.51927,-9.96651 0.0935,-14.91647 -0.14998,-1.60468 2.2418,-2.15957 3.18915,-3.31103 5.27513,-4.27657 10.88193,-8.17541 15.88681,-12.76972 1.88684,-2.36423 1.89249,-6.01783 0.0161,-8.40759 -5.98089,-10.46791 -11.89535,-20.985188 -18.1284,-31.302795 -1.37227,-1.8355 -3.68092,-2.696467 -5.93116,-2.329445 -4.01549,0.761971 -7.66401,2.816961 -11.4907,4.191323 -3.8788,1.577337 -7.7569,3.156389 -11.63543,4.734396 -4.17735,-3.175963 -8.84659,-5.625357 -13.53833,-7.941771 -1.20895,-8.060864 -2.0745,-16.187531 -3.65206,-24.185333 -1.04471,-2.678792 -4.00757,-4.491208 -6.85561,-4.036808 -5.73251,4.5e-4 -11.46501,9e-4 -17.19751,0.0013 z m 18.82573,4.454979 c 1.7797,1.241163 1.30792,3.698388 1.80393,5.542387 1.06209,6.944763 1.77398,13.9668 3.14226,20.851875 1.77476,1.839764 4.46592,2.448306 6.61564,3.772149 3.60392,1.709105 6.68768,4.277921 10.15371,6.205662 1.52182,0.07403 2.95691,-1.037122 4.42874,-1.402967 6.81877,-2.56799 13.5125,-5.586153 20.39934,-7.889386 1.85055,0.407271 2.19037,2.706699 3.27448,3.986089 5.40139,9.230492 10.94023,18.396262 15.92235,27.861292 0.46888,1.00853 1.38922,2.65192 0.0301,3.45176 -6.43503,5.34161 -13.32603,10.14443 -19.52899,15.75896 -0.85035,1.62908 0.15056,3.5723 -0.0351,5.31548 0.17421,4.47877 0.0725,8.96944 -0.28577,13.42432 0.2027,1.6549 2.15871,2.32254 3.15147,3.46568 5.66624,4.78415 11.75523,9.09562 17.21146,14.11015 0.65606,1.57248 -1.03866,2.85572 -1.51181,4.23614 -5.66814,9.94812 -11.28625,19.93965 -17.33986,29.65699 -1.33247,1.31536 -2.98596,-0.38048 -4.4035,-0.61863 -7.1293,-2.63903 -14.07807,-5.83963 -21.29157,-8.20488 -2.33196,0.83391 -4.04723,2.82253 -6.24639,3.95469 -3.24966,2.20371 -6.94724,3.60042 -10.316,5.5736 -1.0022,1.75854 -0.86361,3.99553 -1.32929,5.94141 -1.09651,6.57757 -1.67836,13.2718 -3.08247,19.7791 -0.72621,1.89312 -3.14766,1.00381 -4.71533,1.19599 -11.41568,0 -22.83136,0 -34.247049,0 -1.779696,-1.24116 -1.307925,-3.69839 -1.803934,-5.54239 -1.062657,-6.94017 -1.771497,-13.95999 -3.139207,-20.83967 -1.970469,-1.92426 -4.812898,-2.66098 -7.147516,-4.07367 -3.431373,-1.61701 -6.308651,-4.14752 -9.633021,-5.92397 -1.596708,-0.0106 -3.100938,1.09226 -4.645512,1.50482 -6.762332,2.53105 -13.369293,5.57621 -20.224774,7.78804 -1.818529,-0.46401 -2.15454,-2.72141 -3.23541,-4.00516 -5.40561,-9.2573 -10.95402,-18.45489 -15.95162,-27.94348 -0.491311,-1.00145 -1.31838,-2.6105 0.02823,-3.35864 6.462391,-5.33751 13.304146,-10.25268 19.621536,-15.74116 0.161968,-4.70758 -0.696309,-9.42985 -0.141353,-14.1443 0.02146,-1.87243 0.437946,-3.84222 0.06711,-5.67555 -6.533224,-5.58841 -13.586984,-10.56294 -20.098509,-16.16678 -0.65389,-1.25949 0.611663,-2.62788 0.999631,-3.77765 5.555717,-10.13657 11.357865,-20.146881 17.347093,-30.030564 0.609933,-1.244621 2.137296,-1.008316 3.132873,-0.401714 7.708067,2.777355 15.212539,6.184022 22.962389,8.80673 2.667,-1.154578 4.834896,-3.25769 7.418515,-4.60643 3.06533,-1.997652 6.653361,-3.186652 9.589326,-5.360194 1.601279,-8.446924 2.341716,-17.062514 4.016653,-25.485569 0.623083,-1.477326 2.567551,-0.582626 3.77816,-0.886826 11.751829,-0.174548 23.506259,-0.07786 35.258969,-0.103734 z"
       id="path2" />
    <path
       style="fill:#ffffff;stroke-width:0.260353"
       d="m 107.18655,110.30484 c -14.450821,-0.11894 -27.927128,10.65723 -31.695578,24.4904 -3.141083,11.14314 -0.303903,23.88165 7.796533,32.26392 5.848972,6.36503 14.236576,10.40917 22.885585,10.77816 4.85476,0.0231 9.80621,-0.31546 14.30911,-2.29446 10.02988,-3.85462 17.90445,-12.7438 20.44516,-23.19524 1.21803,-4.84668 1.14861,-9.98016 0.39691,-14.8939 -2.09818,-10.96072 -10.03312,-20.46613 -20.33599,-24.68334 -4.34806,-1.93548 -9.06525,-2.64845 -13.80173,-2.46554 z m 0.72716,4.35022 c 11.167,-0.11951 22.14673,6.6828 26.75835,16.92089 4.82512,9.92473 3.25099,22.43812 -3.73189,30.95552 -7.42304,9.40838 -20.88087,13.35277 -32.163803,9.37444 -11.061478,-3.52811 -19.407103,-14.27977 -19.983736,-25.87526 -0.764109,-10.41057 4.352018,-21.10199 13.319797,-26.59249 4.68765,-3.07499 10.187932,-4.82892 15.801282,-4.7831 z"
       id="path3" />
  </g>
</svg>
